<?xml version="1.0" ?><svg enable-background="new 0 0 32 32" version="1.1" viewBox="0 0 32 32" xml:space="preserve" xmlns="http://www.w3.org/2000/svg" xmlns:xlink="http://www.w3.org/1999/xlink"><g id="Glyph"><g><path d="M30.685,17.985l-7.141,6.223H13.072l3.171-12.059l13.87,3.518C29.917,8.642,25.123,2.311,17.975,0.498    C16.647,0.161,15.317,0,14.007,0C8.268,0,2.941,3.095,0.074,8.047l14.231,3.61l-3.3,12.55H4.431l-4.43,5.813l1.59,1.213    l3.83-5.026h5.057l-1.126,4.281l1.934,0.508l1.259-4.789h10.811l3.011,4.94l1.707-1.041l-2.863-4.699l6.788-5.915L30.685,17.985z     M8.846,8.988c1.708-2.687,6.023-8.235,9.344-7.459c4.228,0.985,4.32,8.873,4.272,10.912L8.846,8.988z"/></g></g></svg>