<?xml version="1.0" encoding="UTF-8" standalone="no"?>
<!-- Created with Inkscape (http://www.inkscape.org/) -->

<svg
   width="64pt"
   height="64pt"
   viewBox="0 0 22.577778 22.577778"
   version="1.1"
   id="svg831"
   inkscape:version="1.1.2 (b8e25be833, 2022-02-05)"
   sodipodi:docname="Export - Unblash - 64px.svg"
   inkscape:export-filename="E:\Project Design\TR Icon Design Project\Carlos - Icon Design Project\Done\Expand\07 - Diving.png"
   inkscape:export-xdpi="576"
   inkscape:export-ydpi="576"
   xmlns:inkscape="http://www.inkscape.org/namespaces/inkscape"
   xmlns:sodipodi="http://sodipodi.sourceforge.net/DTD/sodipodi-0.dtd"
   xmlns="http://www.w3.org/2000/svg"
   xmlns:svg="http://www.w3.org/2000/svg"
   xmlns:rdf="http://www.w3.org/1999/02/22-rdf-syntax-ns#"
   xmlns:cc="http://creativecommons.org/ns#"
   xmlns:dc="http://purl.org/dc/elements/1.1/">
  <defs
     id="defs825">
    <pattern
       id="EMFhbasepattern"
       patternUnits="userSpaceOnUse"
       width="6"
       height="6"
       x="0"
       y="0" />
    <pattern
       id="EMFhbasepattern-9"
       patternUnits="userSpaceOnUse"
       width="6"
       height="6"
       x="0"
       y="0" />
    <pattern
       id="EMFhbasepattern-0"
       patternUnits="userSpaceOnUse"
       width="6"
       height="6"
       x="0"
       y="0" />
    <pattern
       id="EMFhbasepattern-7"
       patternUnits="userSpaceOnUse"
       width="6"
       height="6"
       x="0"
       y="0" />
    <pattern
       id="EMFhbasepattern-2"
       patternUnits="userSpaceOnUse"
       width="6"
       height="6"
       x="0"
       y="0" />
    <pattern
       id="EMFhbasepattern-98"
       patternUnits="userSpaceOnUse"
       width="6"
       height="6"
       x="0"
       y="0" />
    <pattern
       id="EMFhbasepattern-6"
       patternUnits="userSpaceOnUse"
       width="6"
       height="6"
       x="0"
       y="0" />
    <pattern
       id="EMFhbasepattern-01"
       patternUnits="userSpaceOnUse"
       width="6"
       height="6"
       x="0"
       y="0" />
    <pattern
       id="EMFhbasepattern-07"
       patternUnits="userSpaceOnUse"
       width="6"
       height="6"
       x="0"
       y="0" />
    <pattern
       id="EMFhbasepattern-8"
       patternUnits="userSpaceOnUse"
       width="6"
       height="6"
       x="0"
       y="0" />
    <pattern
       id="EMFhbasepattern-4"
       patternUnits="userSpaceOnUse"
       width="6"
       height="6"
       x="0"
       y="0" />
    <pattern
       id="EMFhbasepattern-40"
       patternUnits="userSpaceOnUse"
       width="6"
       height="6"
       x="0"
       y="0" />
    <pattern
       id="EMFhbasepattern-08"
       patternUnits="userSpaceOnUse"
       width="6"
       height="6"
       x="0"
       y="0" />
    <pattern
       id="EMFhbasepattern-04"
       patternUnits="userSpaceOnUse"
       width="6"
       height="6"
       x="0"
       y="0" />
    <pattern
       id="EMFhbasepattern-014"
       patternUnits="userSpaceOnUse"
       width="6"
       height="6"
       x="0"
       y="0" />
    <pattern
       id="EMFhbasepattern-27"
       patternUnits="userSpaceOnUse"
       width="6"
       height="6"
       x="0"
       y="0" />
    <pattern
       id="EMFhbasepattern-09"
       patternUnits="userSpaceOnUse"
       width="6"
       height="6"
       x="0"
       y="0" />
    <pattern
       id="EMFhbasepattern-5"
       patternUnits="userSpaceOnUse"
       width="6"
       height="6"
       x="0"
       y="0" />
    <pattern
       id="EMFhbasepattern-018"
       patternUnits="userSpaceOnUse"
       width="6"
       height="6"
       x="0"
       y="0" />
  </defs>
  <sodipodi:namedview
     id="base"
     pagecolor="#ffffff"
     bordercolor="#666666"
     borderopacity="1.0"
     inkscape:pageopacity="0.0"
     inkscape:pageshadow="2"
     inkscape:zoom="4.9552717"
     inkscape:cx="44.397162"
     inkscape:cy="42.580914"
     inkscape:document-units="pt"
     inkscape:current-layer="layer1"
     showgrid="false"
     units="pt"
     inkscape:window-width="843"
     inkscape:window-height="1041"
     inkscape:window-x="530"
     inkscape:window-y="0"
     inkscape:window-maximized="0"
     inkscape:pagecheckerboard="true"
     inkscape:showpageshadow="false"
     inkscape:object-paths="true"
     inkscape:snap-intersection-paths="true"
     inkscape:snap-smooth-nodes="true"
     inkscape:snap-midpoints="true"
     showguides="true"
     inkscape:snap-bbox="true"
     inkscape:bbox-nodes="true"
     inkscape:snap-nodes="false"
     inkscape:snap-global="true"
     inkscape:snap-others="false">
    <inkscape:grid
       type="xygrid"
       id="grid1378" />
    <sodipodi:guide
       position="0.97013831,21.607643"
       orientation="78.000048,0"
       id="guide1380"
       inkscape:locked="false" />
    <sodipodi:guide
       position="0.97013831,0.97013129"
       orientation="0,78.000005"
       id="guide1382"
       inkscape:locked="false" />
    <sodipodi:guide
       position="21.607639,0.97013129"
       orientation="-78.000048,0"
       id="guide1384"
       inkscape:locked="false" />
    <sodipodi:guide
       position="21.607639,21.607643"
       orientation="0,-78.000005"
       id="guide1386"
       inkscape:locked="false" />
  </sodipodi:namedview>
  <metadata
     id="metadata828">
    <rdf:RDF>
      <cc:Work
         rdf:about="">
        <dc:format>image/svg+xml</dc:format>
        <dc:type
           rdf:resource="http://purl.org/dc/dcmitype/StillImage" />
      </cc:Work>
    </rdf:RDF>
  </metadata>
  <g
     inkscape:label="Icon"
     inkscape:groupmode="layer"
     id="layer1"
     transform="translate(0,-274.42223)">
    <path
       id="path446404"
       style="color:#000000;display:inline;fill:#000000;stroke-width:1;stroke-linecap:round;stroke-linejoin:round;-inkscape-stroke:none"
       d="m 4.9136059,275.39234 c -0.5486723,0.0137 -0.9844128,0.45834 -0.9844128,0.99742 v 0.33226 H 3.5969396 c -0.5476236,0 -1.0000194,0.45239 -1.0000194,1.00001 v 0.76529 c -0.9608697,0.55801 -1.60991642,1.598 -1.60991315,2.78549 v 8.29405 c -3.27e-6,1.77335 1.44646625,3.21917 3.21982625,3.21917 h 1.4421584 c 0.6688597,0 1.2936335,-0.20728 1.808875,-0.55789 0.1516313,-0.1033 0.1911759,-0.30967 0.088428,-0.46164 -0.1033596,-0.15325 -0.3117861,-0.19296 -0.4642477,-0.0884 -0.4088434,0.2782 -0.899916,0.44214 -1.4330555,0.44214 H 4.2068333 c -0.8822873,0 -1.6580314,-0.44411 -2.1164229,-1.12161 1.4989955,-0.30695 3.0010472,-0.37641 4.5098335,-0.19571 0.1826358,0.0225 0.3489345,-0.10732 0.3712679,-0.28999 0.022507,-0.18354 -0.1088769,-0.35025 -0.292593,-0.37127 -1.6377268,-0.19615 -3.2707336,-0.11022 -4.8928077,0.24058 -0.066254,-0.19765 -0.1087738,-0.4061 -0.1248401,-0.62226 1.6275605,-0.38289 3.2559965,-0.48503 4.8947585,-0.29388 0.1826358,0.0225 0.3489347,-0.10733 0.371268,-0.29 0.022507,-0.18354 -0.1088769,-0.35025 -0.2925929,-0.37127 -1.6672782,-0.19447 -3.3302731,-0.097 -4.9812336,0.27504 V 282.438 c 2.1737859,-0.51242 4.3510459,-0.52412 6.5488829,-0.005 v 4.27641 c -7.323e-4,0.18386 0.147746,0.33348 0.3316057,0.3342 0.1848751,7.3e-4 0.3349287,-0.14933 0.3342053,-0.3342 v -2.99615 h 1.6638801 v 2.66389 c 3.66e-4,0.1831 0.148508,0.33155 0.331605,0.33226 0.184113,7.3e-4 0.333848,-0.14814 0.334207,-0.33226 6.7e-5,-1.31312 0,-2.62602 0,-3.9383 1.900283,-0.44791 3.801377,-0.51262 5.718569,-0.17556 0.181198,0.0323 0.354208,-0.0886 0.386224,-0.26983 0.03226,-0.18141 -0.08898,-0.35453 -0.270486,-0.38622 -1.046955,-0.18407 -2.091192,-0.25365 -3.133348,-0.21132 -0.902926,0.0366 -1.803571,0.15649 -2.700959,0.35827 l 0.0059,-0.64827 c 1.763026,-0.41471 3.528287,-0.50036 5.305039,-0.24057 0.181893,0.0272 0.35134,-0.0983 0.37842,-0.28024 0.02708,-0.18277 -0.09988,-0.35262 -0.28284,-0.37842 -1.757741,-0.257 -3.509568,-0.1911 -5.249771,0.18206 0.221963,-0.60497 0.665279,-1.10159 1.262702,-1.40574 0.362966,-0.17379 0.73653,-0.26334 1.13201,-0.26334 0.183859,7.3e-4 0.33349,-0.14775 0.334207,-0.3316 7.32e-4,-0.18489 -0.149331,-0.33494 -0.334207,-0.33421 -0.327267,0 -0.643701,0.0489 -0.941499,0.14044 v -0.47205 c 0,-0.18779 0.143815,-0.33421 0.331605,-0.33421 h 2.663897 c 0.187791,0 0.331606,0.14642 0.331606,0.33421 v 0.4727 c -0.298583,-0.0916 -0.615556,-0.14109 -0.94345,-0.14109 -0.183858,7.2e-4 -0.332324,0.15034 -0.331606,0.33421 7e-4,0.18284 0.148762,0.33088 0.331606,0.3316 1.019551,0 1.89486,0.59534 2.304984,1.45517 0.07909,0.16656 0.2785,0.23711 0.44474,0.15734 0.16545,-0.079 0.235804,-0.27705 0.157351,-0.44279 -0.280696,-0.58848 -0.735507,-1.07847 -1.297162,-1.4038 v -0.76334 c 0,-0.54762 -0.450447,-1.00001 -0.998069,-1.00001 h -0.334191 v -0.33226 c 0,-0.54764 -0.449782,-0.99743 -0.997418,-0.99743 -0.547636,0 -1.000669,0.44979 -1.000668,0.99743 v 0.33226 h -0.331606 c -0.54762,0 -0.997418,0.45239 -0.997418,1.00001 v 0.76334 c -0.961577,0.55765 -1.609913,1.59888 -1.609911,2.78744 v 0.44279 H 8.8682278 v -0.44279 c 3.7e-6,-1.1877 -0.648109,-2.2282 -1.6092623,-2.78614 v -0.76464 c -1.4e-6,-0.54762 -0.4523976,-1.00001 -1.0000185,-1.00001 H 5.9266286 v -0.33226 c 0,-0.54764 -0.4527088,-0.99743 -1.0130227,-0.99743 z m 0.013016,0.66321 c 0.1877955,0 0.3342042,0.1464 0.3342042,0.33421 v 0.33226 H 4.5950149 v -0.33226 c 0,-0.18781 0.1438087,-0.33421 0.331607,-0.33421 z m 9.5450361,0 c 0.187798,0 0.331606,0.1464 0.331606,0.33421 v 0.33226 h -0.665811 v -0.33226 c 0,-0.18781 0.146406,-0.33421 0.334205,-0.33421 z m -8.212777,1.33227 c 0.1877893,0 0.3342067,0.14642 0.3342067,0.33421 v 0.47335 c -0.2987335,-0.092 -0.6158358,-0.14174 -0.9440999,-0.14174 -0.1838607,7.3e-4 -0.3323267,0.15034 -0.3316077,0.33421 6.659e-4,0.18284 0.1487624,0.33089 0.3316077,0.3316 0.3968244,0 0.7721337,0.0901 1.1170548,0.25554 0.5935866,0.29121 1.0501522,0.79356 1.2776572,1.40834 -1.0443184,-0.22405 -2.0865258,-0.33372 -3.1268454,-0.3316 -1.039046,0.003 -2.0753689,0.11651 -3.1073406,0.33809 0.227358,-0.61941 0.6871611,-1.12435 1.2815579,-1.41483 0.3418079,-0.16464 0.7182013,-0.25554 1.1157576,-0.25554 0.1828453,-7e-4 0.3308918,-0.14876 0.3316042,-0.3316 6.659e-4,-0.18387 -0.1477469,-0.3335 -0.3316042,-0.33421 -0.3282686,0 -0.6453681,0.0497 -0.9441013,0.14174 v -0.47335 c 0,-0.18193 0.1373337,-0.32544 0.3166502,-0.33421 z m 13.334457,12.99505 -6.65e-4,1.31991 c 0,1.29096 -1.038736,2.33164 -2.329692,2.33164 h -3.015009 v -0.66581 c 0.13562,-2.4e-4 0.260347,-0.0715 0.31665,-0.18401 l 0.334207,-0.66646 c 0.0826,-0.1648 0.01556,-0.36535 -0.149548,-0.44734 -0.164974,-0.0825 -0.36559,-0.0151 -0.447341,0.1502 l -0.240577,0.4818 h -1.585205 l -0.241226,-0.4818 c -0.03914,-0.0788 -0.107868,-0.13885 -0.191161,-0.16711 -0.08421,-0.0288 -0.176483,-0.0228 -0.256182,0.0169 -0.164128,0.0829 -0.229923,0.28323 -0.146947,0.44734 l 0.331606,0.66646 c 0.05381,0.10682 0.160789,0.17656 0.280239,0.1827 v 0.99938 c 0,0.91534 0.74853,1.66322 1.663879,1.66322 h 3.346615 c 2.38622,0 4.327778,-1.9409 4.327778,-4.32712 2.6e-5,-2.72787 0,-5.45644 0,-8.18351 2e-6,-0.38961 -0.154292,-0.76418 -0.429788,-1.03968 l -1.663879,-1.66388 c -0.369853,-0.36984 -0.87232,-0.31236 -1.184677,0 l -0.228222,0.22888 c -0.324149,0.32415 -0.324149,0.85793 0,1.18207 l 1.511081,1.51108 c -0.003,1.54523 -0.001,3.08873 -0.0013,4.63728 h -0.713235 c -0.117292,-0.39757 -0.439323,-0.71809 -0.862826,-0.81081 -1.588195,-0.34769 -3.178143,-0.52082 -4.767967,-0.52082 -1.589824,0 -3.179121,0.17313 -4.767317,0.52082 -0.5365332,0.11739 -0.9089892,0.60022 -0.9089892,1.14242 v 1.67624 c -7.7e-6,0.53818 0.38664,1.00191 0.9161422,1.09819 l 2.373905,0.43304 c 0.528898,0.0961 1.056551,-0.1966 1.2562,-0.69572 l 0.284791,-0.71264 c 0.03276,-0.0819 0.110749,-0.13264 0.198963,-0.13264 h 1.295212 c 0.08516,0 0.156511,0.0505 0.18661,0.13005 l 0.267884,0.70548 c 0.190193,0.50335 0.716878,0.8008 1.246448,0.70547 l 2.410316,-0.43304 c 0.529719,-0.0954 0.919401,-0.55996 0.919393,-1.09819 z M 4.9175075,280.71753 c 1.089171,-0.003 2.1815924,0.12431 3.2789943,0.38298 l 0.00591,0.64825 c -1.0972369,-0.24704 -2.1929006,-0.36765 -3.2854954,-0.36541 -1.0916918,0.003 -2.179715,0.12728 -3.263387,0.37126 l 0.00586,-0.6489 c 1.0845409,-0.25525 2.1699008,-0.38598 3.2581869,-0.38818 z m 14.1075405,0.56764 1.66648,1.66648 c 0.150812,0.15081 0.233425,0.35434 0.233425,0.56762 v 0.86023 h -0.663862 v -0.7796 c -1.89e-4,-0.0883 -0.03551,-0.17305 -0.09818,-0.23537 l -1.607312,-1.60731 c -0.06971,-0.0697 -0.06971,-0.17348 0,-0.24318 l 0.228873,-0.22887 c 0.09291,-0.0929 0.188533,-0.0521 0.240576,0 z m -10.1568831,1.09624 h 1.6638801 v 0.66582 H 8.8681649 Z m -3.9220474,0.66582 c -1.3750014,0 -2.4967978,1.12179 -2.4967945,2.4968 3.4e-6,1.37499 1.1217965,2.49678 2.4967945,2.49678 1.374998,0 2.4967907,-1.12179 2.4967944,-2.49678 3.6e-6,-1.37501 -1.1217914,-2.4968 -2.4967944,-2.4968 z m 13.1302785,0 c -0.18386,7.3e-4 -0.332326,0.15034 -0.331606,0.33421 v 3.32775 c -7.32e-4,0.18386 0.147746,0.33349 0.331606,0.3342 0.184876,7.4e-4 0.33493,-0.14932 0.334206,-0.3342 v -3.32775 c 7.33e-4,-0.18489 -0.14933,-0.33493 -0.334206,-0.33421 z m -5.472791,0.33421 c -0.18386,-7.5e-4 -0.333491,0.14774 -0.334207,0.3316 -7.32e-4,0.18487 0.149331,0.33493 0.334207,0.3342 h 3.99357 c 0.184876,7.4e-4 0.33493,-0.14933 0.334207,-0.3342 -7.33e-4,-0.18386 -0.150347,-0.33232 -0.334207,-0.3316 z m -7.6574875,0.3316 c 1.0151716,0 1.8309853,0.81581 1.8309826,1.83099 -2.7e-6,1.01516 -0.8158159,1.83097 -1.8309826,1.83097 -1.0151667,0 -1.8303301,-0.81581 -1.8303335,-1.83097 -3.3e-6,-1.01518 0.8151635,-1.83099 1.8303335,-1.83099 z m 0.4323882,0.93174 -0.2587845,0.25878 c -0.056581,-0.0155 -0.1149554,-0.0233 -0.1736037,-0.0234 -0.3670222,0.001 -0.6634016,0.30009 -0.6619103,0.66711 0.00133,0.36499 0.2969189,0.66053 0.6619103,0.66192 0.3649914,-10e-4 0.6605352,-0.29693 0.6619101,-0.66192 3.329e-4,-0.0573 -0.00659,-0.11424 -0.020806,-0.16971 l 0.2607319,-0.26137 c 0.1304082,-0.13009 0.1304082,-0.34133 0,-0.47141 -0.1558966,-0.15495 -0.3291641,-0.11877 -0.4694478,0 z m 7.5567033,0.0689 c -0.182844,7e-4 -0.330892,0.14876 -0.331604,0.33161 -7.34e-4,0.18385 0.147746,0.33348 0.331604,0.3342 h 3.33036 c 0.18386,-7.3e-4 0.332326,-0.15035 0.331606,-0.3342 -6.98e-4,-0.18285 -0.148761,-0.3309 -0.331606,-0.33161 z m 7.325231,0.33161 h 0.664513 v 6.65747 c 0,2.02639 -1.635577,3.66391 -3.661966,3.66391 h -3.346615 c -0.555518,0 -0.998067,-0.44451 -0.998067,-1.00002 v -0.99806 h 0.665811 v 0.6658 c 0,0.36378 0.300085,0.66647 0.663862,0.66647 h 3.015009 c 1.650789,0 2.995503,-1.34732 2.995503,-2.9981 z m -7.01053,2.66389 c 1.541276,0 3.082017,0.16809 4.624922,0.50586 0.181869,0.0399 0.388823,0.29833 0.388823,0.49157 v 1.67623 c 3e-6,0.22038 -0.154374,0.40309 -0.371267,0.44214 l -2.410968,0.43498 c -0.21792,0.0393 -0.427596,-0.0803 -0.505861,-0.28739 l -0.265935,-0.70547 c -0.127214,-0.33668 -0.450898,-0.55983 -0.810808,-0.55983 h -1.295211 c -0.358456,0 -0.682883,0.21726 -0.816011,0.55008 l -0.284791,0.71522 c -0.08357,0.20894 -0.299411,0.32505 -0.520815,0.28479 l -2.3713042,-0.42979 c -0.2171813,-0.0395 -0.3712714,-0.22399 -0.3712689,-0.44473 v -1.67623 c 0,-0.19324 0.2037083,-0.45175 0.3855737,-0.49157 1.5429054,-0.33777 3.0836454,-0.50586 4.6249214,-0.50586 z m -3.9292011,1.18208 -0.3342053,0.58193 c -0.092455,0.1589 -0.038602,0.36267 0.1202865,0.45515 0.1594388,0.0916 0.3629281,0.0365 0.4544943,-0.12292 l 0.3368073,-0.58 c 0.091574,-0.15943 0.036551,-0.36292 -0.1228911,-0.45448 -0.1712421,-0.0917 -0.335471,-0.0473 -0.4544955,0.12029 z m 7.4409691,-0.12091 c -0.159836,0.0916 -0.21491,0.29555 -0.122891,0.45514 l 0.336807,0.57999 c 0.09156,0.15944 0.295056,0.21446 0.454495,0.12293 0.159836,-0.0916 0.21491,-0.29557 0.122891,-0.45515 l -0.336808,-0.58193 c -0.120739,-0.18372 -0.30563,-0.1942 -0.454494,-0.12092 z m 2.16779,0.27048 h 0.66386 v 0.66647 h -0.66386 z m -8.111982,0.23342 -0.499359,0.86544 c -0.09201,0.15875 -0.03821,0.36203 0.120287,0.45448 0.159584,0.092 0.363562,0.037 0.455144,-0.12293 l 0.49871,-0.86478 c 0.09246,-0.1589 0.0386,-0.36267 -0.120286,-0.45515 -0.188649,-0.10317 -0.344546,-0.0299 -0.454495,0.12293 z m 4.327111,0.33226 0.499359,0.86478 c 0.09156,0.15945 0.295056,0.21447 0.454494,0.12293 0.159447,-0.0916 0.214466,-0.29505 0.122891,-0.45448 l -0.501309,-0.86543 c -0.136577,-0.20013 -0.308078,-0.19538 -0.454812,-0.12293 -0.159225,0.0925 -0.213077,0.29625 -0.120627,0.45515 z"
       sodipodi:nodetypes="cscsscccsscccssccccccccccccccccccccccccccccccccccccssssccccccccsscssscsscsccscsscscssccssssccsscscccccccccccccsccscccccccccccccccssscscccccccccscscccccssccccccscccccsscccccccsssccsscssccscccccccccsscccssccsccccccccccccssccccsscsccsssccscscccccsscccccscscccccccccccccccccccccccccccccccccccc" />
  </g>
</svg>
