<?xml version="1.0" encoding="UTF-8" standalone="no"?>
<svg
   xmlns:dc="http://purl.org/dc/elements/1.1/"
   xmlns:cc="http://creativecommons.org/ns#"
   xmlns:rdf="http://www.w3.org/1999/02/22-rdf-syntax-ns#"
   xmlns:svg="http://www.w3.org/2000/svg"
   xmlns="http://www.w3.org/2000/svg"
   xmlns:sodipodi="http://sodipodi.sourceforge.net/DTD/sodipodi-0.dtd"
   xmlns:inkscape="http://www.inkscape.org/namespaces/inkscape"
   sodipodi:docname="4 - Swimming Pool.svg"
   inkscape:version="1.0 (4035a4fb49, 2020-05-01)"
   id="svg831"
   version="1.1"
   viewBox="0 0 22.577778 22.577778"
   height="64pt"
   width="64pt"
   inkscape:export-filename="C:\Users\RainBoyz\Desktop\Oktober 2\Expand [Done!]\4 - Swimming Pool.png"
   inkscape:export-xdpi="576"
   inkscape:export-ydpi="576">
  <defs
     id="defs825">
    <pattern
       y="0"
       x="0"
       height="6"
       width="6"
       patternUnits="userSpaceOnUse"
       id="EMFhbasepattern" />
    <pattern
       y="0"
       x="0"
       height="6"
       width="6"
       patternUnits="userSpaceOnUse"
       id="EMFhbasepattern-9" />
    <pattern
       y="0"
       x="0"
       height="6"
       width="6"
       patternUnits="userSpaceOnUse"
       id="EMFhbasepattern-0" />
    <pattern
       y="0"
       x="0"
       height="6"
       width="6"
       patternUnits="userSpaceOnUse"
       id="EMFhbasepattern-7" />
    <pattern
       y="0"
       x="0"
       height="6"
       width="6"
       patternUnits="userSpaceOnUse"
       id="EMFhbasepattern-2" />
    <pattern
       y="0"
       x="0"
       height="6"
       width="6"
       patternUnits="userSpaceOnUse"
       id="EMFhbasepattern-98" />
    <pattern
       y="0"
       x="0"
       height="6"
       width="6"
       patternUnits="userSpaceOnUse"
       id="EMFhbasepattern-6" />
    <pattern
       y="0"
       x="0"
       height="6"
       width="6"
       patternUnits="userSpaceOnUse"
       id="EMFhbasepattern-01" />
    <pattern
       y="0"
       x="0"
       height="6"
       width="6"
       patternUnits="userSpaceOnUse"
       id="EMFhbasepattern-07" />
    <pattern
       y="0"
       x="0"
       height="6"
       width="6"
       patternUnits="userSpaceOnUse"
       id="EMFhbasepattern-8" />
    <pattern
       y="0"
       x="0"
       height="6"
       width="6"
       patternUnits="userSpaceOnUse"
       id="EMFhbasepattern-4" />
    <pattern
       y="0"
       x="0"
       height="6"
       width="6"
       patternUnits="userSpaceOnUse"
       id="EMFhbasepattern-40" />
    <pattern
       y="0"
       x="0"
       height="6"
       width="6"
       patternUnits="userSpaceOnUse"
       id="EMFhbasepattern-08" />
    <pattern
       y="0"
       x="0"
       height="6"
       width="6"
       patternUnits="userSpaceOnUse"
       id="EMFhbasepattern-04" />
    <pattern
       y="0"
       x="0"
       height="6"
       width="6"
       patternUnits="userSpaceOnUse"
       id="EMFhbasepattern-014" />
    <pattern
       y="0"
       x="0"
       height="6"
       width="6"
       patternUnits="userSpaceOnUse"
       id="EMFhbasepattern-27" />
    <pattern
       y="0"
       x="0"
       height="6"
       width="6"
       patternUnits="userSpaceOnUse"
       id="EMFhbasepattern-09" />
    <pattern
       y="0"
       x="0"
       height="6"
       width="6"
       patternUnits="userSpaceOnUse"
       id="EMFhbasepattern-5" />
    <pattern
       y="0"
       x="0"
       height="6"
       width="6"
       patternUnits="userSpaceOnUse"
       id="EMFhbasepattern-018" />
  </defs>
  <sodipodi:namedview
     inkscape:document-rotation="0"
     inkscape:snap-global="true"
     inkscape:snap-nodes="false"
     inkscape:bbox-nodes="true"
     inkscape:snap-bbox="true"
     showguides="true"
     inkscape:snap-midpoints="true"
     inkscape:snap-smooth-nodes="true"
     inkscape:snap-intersection-paths="true"
     inkscape:object-paths="true"
     inkscape:showpageshadow="false"
     inkscape:pagecheckerboard="true"
     inkscape:window-maximized="1"
     inkscape:window-y="-8"
     inkscape:window-x="-8"
     inkscape:window-height="715"
     inkscape:window-width="1366"
     units="pt"
     showgrid="false"
     inkscape:current-layer="layer1"
     inkscape:document-units="pt"
     inkscape:cy="42.666667"
     inkscape:cx="-46.521273"
     inkscape:zoom="2.175182"
     inkscape:pageshadow="2"
     inkscape:pageopacity="0.0"
     borderopacity="1.0"
     bordercolor="#666666"
     pagecolor="#ffffff"
     id="base">
    <inkscape:grid
       id="grid1378"
       type="xygrid" />
    <sodipodi:guide
       inkscape:locked="false"
       id="guide1380"
       orientation="78.000048,0"
       position="0.97013831,21.607643" />
    <sodipodi:guide
       inkscape:locked="false"
       id="guide1382"
       orientation="0,78.000005"
       position="0.97013831,0.97013129" />
    <sodipodi:guide
       inkscape:locked="false"
       id="guide1384"
       orientation="-78.000048,0"
       position="21.607639,0.97013129" />
    <sodipodi:guide
       inkscape:locked="false"
       id="guide1386"
       orientation="0,-78.000005"
       position="21.607639,21.607643" />
  </sodipodi:namedview>
  <metadata
     id="metadata828">
    <rdf:RDF>
      <cc:Work
         rdf:about="">
        <dc:format>image/svg+xml</dc:format>
        <dc:type
           rdf:resource="http://purl.org/dc/dcmitype/StillImage" />
        <dc:title />
      </cc:Work>
    </rdf:RDF>
  </metadata>
  <g
     transform="translate(0,-274.42223)"
     id="layer1"
     inkscape:groupmode="layer"
     inkscape:label="Icon">
    <path
       id="path990"
       style="color:#000000;font-style:normal;font-variant:normal;font-weight:normal;font-stretch:normal;font-size:medium;line-height:normal;font-family:sans-serif;font-variant-ligatures:normal;font-variant-position:normal;font-variant-caps:normal;font-variant-numeric:normal;font-variant-alternates:normal;font-variant-east-asian:normal;font-feature-settings:normal;font-variation-settings:normal;text-indent:0;text-align:start;text-decoration:none;text-decoration-line:none;text-decoration-style:solid;text-decoration-color:#000000;letter-spacing:normal;word-spacing:normal;text-transform:none;writing-mode:lr-tb;direction:ltr;text-orientation:mixed;dominant-baseline:auto;baseline-shift:baseline;text-anchor:start;white-space:normal;shape-padding:0;shape-margin:0;inline-size:0;clip-rule:nonzero;display:inline;overflow:visible;visibility:visible;opacity:1;isolation:auto;mix-blend-mode:normal;color-interpolation:sRGB;color-interpolation-filters:linearRGB;solid-color:#000000;solid-opacity:1;vector-effect:none;fill:#000000;fill-opacity:1;fill-rule:nonzero;stroke:none;stroke-width:0.676638;stroke-linecap:round;stroke-linejoin:round;stroke-miterlimit:4;stroke-dasharray:none;stroke-dashoffset:0;stroke-opacity:1;color-rendering:auto;image-rendering:auto;shape-rendering:auto;text-rendering:auto;enable-background:accumulate;stop-color:#000000;stop-opacity:1"
       d="m 4.9586006,275.53488 c -0.1871038,-6.8e-4 -0.3392729,0.15055 -0.3396384,0.33766 v 1.08103 c -6.765e-4,0.18789 0.1517564,0.34037 0.3396384,0.33964 0.1868503,-6.7e-4 0.3377304,-0.15279 0.3369996,-0.33964 v -1.08103 c -3.383e-4,-0.18607 -0.150924,-0.33693 -0.3369996,-0.33766 z m -2.2103055,1.45108 c -0.085676,0.004 -0.1669164,0.0389 -0.2273064,0.0997 -0.1312102,0.13196 -0.1312102,0.34511 0,0.47707 l 0.3819283,0.3826 c 0.1319647,0.13121 0.3451192,0.13121 0.477084,0 0.1312101,-0.13197 0.1312101,-0.34512 0,-0.47709 l -0.3819318,-0.38258 c -0.065891,-0.0664 -0.1563033,-0.10243 -0.2497741,-0.0997 z m 4.398147,0 c -0.085672,0.004 -0.1669171,0.0389 -0.2273069,0.0997 l -0.3825917,0.38258 c -0.1312098,0.13197 -0.1312098,0.34512 0,0.47709 0.1319655,0.13121 0.345116,0.13121 0.4770815,0 l 0.3825905,-0.3826 c 0.1312111,-0.13196 0.1312111,-0.34511 0,-0.47707 -0.065891,-0.0664 -0.1563027,-0.10243 -0.2497734,-0.0997 z m -2.1878415,0.71165 c -1.0042896,0 -1.8257248,0.82144 -1.8257315,1.82573 6.7e-6,1.0043 0.8214419,1.82574 1.8257315,1.82574 1.0042937,0 1.8257279,-0.82144 1.8257356,-1.82574 -7.7e-6,-1.00429 -0.8214419,-1.82573 -1.8257356,-1.82573 z m 7.5143934,3.67665 c -0.005,0.13109 0.01414,0.24316 0.09779,0.31981 0.132191,0.13253 0.346874,0.13253 0.479066,0 0.289685,-0.28968 0.535539,-0.40063 0.754612,-0.40705 0.219072,-0.006 0.457905,0.0875 0.744038,0.35683 0.138338,0.15171 0.439219,0.14429 0.531891,0.0501 0.249801,-0.26101 0.468467,-0.32003 0.774436,-0.37599 v 3.68981 h -2.030578 c -0.185818,7e-4 -0.336272,0.15117 -0.336996,0.33699 -6.77e-4,0.18684 0.150146,0.33891 0.336996,0.33963 h 0.874214 l -0.774437,0.77444 c -0.06361,0.0636 -0.09928,0.14991 -0.09911,0.23987 h -1.698868 c -0.03752,-0.49417 -0.235994,-0.85567 -0.499548,-1.0665 -0.293069,-0.23445 -0.620913,-0.28744 -0.846457,-0.28744 -0.225547,0 -0.551409,0.0529 -0.8444791,0.28744 -0.2930646,0.23445 -0.5094605,0.65365 -0.5094605,1.23631 v 0.16982 c -0.1858186,7.2e-4 -0.3362726,0.15118 -0.3369964,0.337 -6.764e-4,0.18685 0.1501459,0.33891 0.3369964,0.33964 v 0.62708 c -0.080212,-0.003 -0.1588818,-1.8e-4 -0.2345775,0.0102 -0.4108942,0.0547 -0.7129799,0.26497 -0.9667185,0.43413 -0.2537399,0.16916 -0.4578105,0.29531 -0.6812634,0.32511 -0.2234529,0.0298 -0.5098198,-0.0156 -0.9739904,-0.32511 -0.4904029,-0.32693 -0.9169662,-0.46159 -1.2990901,-0.44668 -0.3821245,0.015 -0.6858165,0.17624 -0.9317001,0.33237 -0.24588,0.15614 -0.4485433,0.30532 -0.6416151,0.38193 -0.1930719,0.0766 -0.3687237,0.10408 -0.6640829,0.003 -0.2302465,-0.079 -0.4822264,-0.10498 -0.7096782,0.0244 -0.2274519,0.1294 -0.3396386,0.40063 -0.3396386,0.6621 v 5.07478 c 0,0.55651 0.4577964,1.01462 1.014294,1.01628 l 17.5919284,0.0528 c 0.556556,10e-4 1.01628,-0.45509 1.01628,-1.01165 v -6.42872 -1.01364 c 0,-0.40083 -0.330646,-0.73413 -0.731483,-0.73413 h -1.63675 c 1.62e-4,-0.0899 -0.0355,-0.17625 -0.09912,-0.23986 l -0.774435,-0.77443 h 0.197575 c 0.52792,0 1.030177,-0.23089 1.37376,-0.63171 0.531222,-0.61941 1.059514,-1.23612 1.590499,-1.85546 0.121552,-0.14195 0.10498,-0.35557 -0.03701,-0.47708 -0.163694,-0.13013 -0.382259,-0.0642 -0.47708,0.0376 l -0.769807,0.89668 h -1.68036 c -0.576546,-1e-5 -1.102356,0.33527 -1.343364,0.85902 l -0.226649,0.49426 h -0.460561 v -3.68649 c 0.283184,0.0517 0.545455,0.1629 0.732143,0.32973 0.07411,0.0948 0.188467,0.1424 0.284158,0.14275 0.09483,-2.4e-4 0.185212,-0.0403 0.360252,-0.21601 0.175035,-0.17574 0.418825,-0.28472 0.634287,-0.29081 0.219308,-0.006 0.457441,0.089 0.744034,0.35946 0.105197,0.0895 0.197362,0.14804 0.289405,0.14736 0.187882,7.4e-4 0.340376,-0.15176 0.339642,-0.33965 3.4e-5,-2.0406 -1.652502,-3.70288 -3.708808,-3.70102 -2.056303,0.001 -3.69031,1.61949 -3.733591,3.62116 z m -7.5143934,-2.99935 c 0.6386138,0 1.148431,0.50982 1.1484374,1.14843 -6.4e-6,0.63861 -0.5098236,1.1491 -1.1484374,1.1491 -0.6386074,0 -1.1490902,-0.51049 -1.1490936,-1.1491 3.4e-6,-0.63861 0.5104862,-1.14843 1.1490936,-1.14843 z m 12.0869784,0.15726 c 1.043825,0.30253 1.853477,1.1457 2.107222,2.21031 -0.202399,-0.0909 -0.412785,-0.1389 -0.6284,-0.13281 -0.234715,0.006 -0.459887,0.0813 -0.675978,0.20088 -0.09754,-0.9224 -0.389756,-1.6262 -0.689853,-2.11384 -0.03816,-0.062 -0.07508,-0.10932 -0.112984,-0.16454 z m -1.705473,10e-4 c -0.03759,0.0549 -0.0745,0.10178 -0.112332,0.16321 -0.300308,0.488 -0.592525,1.19247 -0.689852,2.11582 -0.239845,-0.13304 -0.491209,-0.21049 -0.751305,-0.20287 -0.189744,0.005 -0.374034,0.0534 -0.552416,0.13349 0.2535,-1.06353 1.06305,-1.90617 2.105905,-2.20965 z m 0.853068,0.003 c 0.106809,0.1147 0.243329,0.28009 0.388535,0.51606 0.245871,0.39954 0.49328,0.97614 0.586114,1.75504 -0.320289,-0.13825 -0.673139,-0.20357 -1.02355,-0.19692 -0.31806,0.006 -0.635086,0.0743 -0.925749,0.20088 0.09246,-0.78088 0.339831,-1.35879 0.586111,-1.759 0.145206,-0.23597 0.281725,-0.40143 0.388539,-0.51606 z m -14.8860366,0.65041 c -0.1858183,6.8e-4 -0.33627554,0.15118 -0.33699953,0.337 6.7655e-4,0.18582 0.15118123,0.33627 0.33699953,0.337 h 1.0816937 c 0.1868503,6.8e-4 0.3389111,-0.15014 0.3396419,-0.337 -6.767e-4,-0.18685 -0.1527916,-0.33772 -0.3396419,-0.337 z m 6.2212367,0 c -0.1868505,-6.7e-4 -0.3389144,0.15015 -0.339642,0.337 6.764e-4,0.18686 0.1527915,0.33773 0.339642,0.337 h 1.0810331 c 0.1860756,-3.3e-4 0.3369324,-0.15092 0.33766,-0.337 -6.777e-4,-0.18607 -0.1515844,-0.33664 -0.33766,-0.337 z m -4.3981473,1.81583 c -0.085676,0.004 -0.1669198,0.0389 -0.2273098,0.0997 l -0.3819283,0.38194 c -0.1312102,0.13196 -0.1312102,0.34511 0,0.47707 0.1319647,0.13122 0.3451158,0.13122 0.4770805,0 l 0.3819318,-0.382 c 0.1312101,-0.13196 0.1312101,-0.34512 0,-0.47708 -0.065891,-0.0664 -0.1563034,-0.10242 -0.2497742,-0.0997 z m 3.6336235,0 c -0.085672,0.004 -0.1669158,0.0389 -0.2273068,0.0997 -0.1312098,0.13197 -0.1312098,0.34512 0,0.47708 l 0.3825917,0.38193 c 0.1319655,0.13122 0.3451161,0.13122 0.4770803,0 0.1312111,-0.13196 0.1312111,-0.34511 0,-0.47707 L 7.013625,281.10211 c -0.065891,-0.0664 -0.156304,-0.10242 -0.2497747,-0.0997 z m -1.8052497,0.7513 c -0.187882,-7.4e-4 -0.3403725,0.15176 -0.3396384,0.33965 v 1.08169 c 6.767e-4,0.18685 0.1527916,0.33772 0.3396384,0.337 0.1858184,-7.2e-4 0.3362756,-0.15118 0.3369996,-0.337 v -1.08169 c 6.766e-4,-0.18686 -0.1501493,-0.33892 -0.3369996,-0.33965 z m 13.6034654,2.57771 h 1.098878 l -0.239865,0.2795 c -0.215299,0.25116 -0.528197,0.39712 -0.859013,0.39712 h -0.825974 l 0.09648,-0.20946 c 0.131255,-0.28525 0.415507,-0.46716 0.729501,-0.46716 z m -2.904785,1.35327 h 0.197575 v 1.01429 h -1.21121 z m 0.874212,0 h 0.876852 l 1.013637,1.01429 h -1.890489 z m -5.751424,0.33766 c 0.112767,0 0.294388,0.0329 0.424218,0.13678 0.110913,0.0887 0.211471,0.23892 0.239865,0.54712 -0.368453,0.0366 -0.664083,0.34996 -0.664083,0.72686 v 0.61915 0.82201 c -0.05021,-0.0294 -0.09536,-0.0514 -0.149996,-0.0879 -0.18402,-0.12263 -0.358835,-0.2156 -0.526641,-0.28612 v -0.785 c 0.187881,7.5e-4 0.340372,-0.15176 0.339638,-0.33964 -6.76e-4,-0.18684 -0.152791,-0.33773 -0.339638,-0.337 v -0.16982 c 0,-0.4323 0.124569,-0.6058 0.254398,-0.70967 0.12983,-0.10383 0.309464,-0.13678 0.422239,-0.13678 z m 0.734126,1.35327 h 9.3606 c 0.03515,0 0.05484,0.0224 0.05484,0.0575 v 0.67664 h -9.415443 c -0.03515,0 -0.05749,-0.0224 -0.05749,-0.0575 v -0.30925 -0.3099 c 0,-0.0352 0.02233,-0.0575 0.05749,-0.0575 z m -0.05749,1.40283 c 0.01928,10e-4 0.03785,0.006 0.05749,0.006 h 9.415444 v 6.09107 c 0,0.19015 -0.14682,0.33756 -0.336999,0.337 l -9.135933,-0.0271 z m -6.158465,0.23789 c 0.2088066,-0.008 0.4833929,0.0569 0.8966769,0.33237 0.5507863,0.36719 1.0276198,0.48958 1.4385192,0.43479 0.4108955,-0.0547 0.7123163,-0.26563 0.9660561,-0.43479 0.2537386,-0.16916 0.4584729,-0.29729 0.6819258,-0.32709 0.044652,-0.006 0.094124,-0.005 0.1447089,-0.004 v 0.72554 c -0.1868493,7.4e-4 -0.3377265,0.15279 -0.3369964,0.33963 6.777e-4,0.18582 0.151179,0.33628 0.3369964,0.337 v 0.6773 c -0.1868493,7.4e-4 -0.3377265,0.15279 -0.3369964,0.33963 6.777e-4,0.18582 0.151179,0.33629 0.3369964,0.337 v 0.84647 c 6.764e-4,0.18685 0.1527915,0.33772 0.339642,0.33699 0.1860757,-3.7e-4 0.3369331,-0.15092 0.3376601,-0.33699 v -0.84647 c 0.186847,7.6e-4 0.338911,-0.15014 0.339639,-0.337 6.76e-4,-0.18787 -0.151757,-0.34037 -0.339639,-0.33963 v -0.6773 c 0.186847,7.5e-4 0.338911,-0.15015 0.339639,-0.337 6.76e-4,-0.18788 -0.151757,-0.34038 -0.339639,-0.33963 v -0.48369 c 0.0508,0.0299 0.09625,0.052 0.15198,0.0892 0.185246,0.12352 0.357399,0.20959 0.524657,0.28017 v 5.55451 l -7.7793536,-0.0231 C 2.809173,295.15967 2.6610705,295.0095 2.6610705,294.81797 v -5.07479 c 0,-0.0503 0.00237,-0.0657 0.00396,-0.074 6.766e-4,0.003 0.041451,-0.0102 0.1480145,0.0265 0.4319149,0.14825 0.8242466,0.11035 1.1338964,-0.0128 0.3096499,-0.12288 0.5432152,-0.30518 0.7546103,-0.43942 0.2113953,-0.13424 0.387876,-0.21914 0.5966831,-0.2273 z m -0.027742,0.68787 c -0.2244035,0.005 -0.4259808,0.0558 -0.601971,0.13612 -0.4693058,0.21437 -0.7679908,0.51812 -1.0737634,0.60196 -0.1809736,0.0492 -0.2873818,0.23625 -0.2372226,0.41696 0.048948,0.18024 0.2346987,0.28673 0.4149719,0.23788 0.5364961,-0.1471 0.8678052,-0.49786 1.1781689,-0.63963 0.3103602,-0.14177 0.5872441,-0.19352 1.2442458,0.24448 0.5596028,0.37307 1.0437683,0.49309 1.4583413,0.43216 0.4145717,-0.061 0.7162956,-0.27947 0.9713435,-0.44933 0.1537799,-0.10396 0.195061,-0.31245 0.092513,-0.46718 -0.1033434,-0.15445 -0.3119265,-0.19665 -0.4671705,-0.0945 -0.2606883,0.17361 -0.4706255,0.30842 -0.6964606,0.34162 -0.2258377,0.0332 -0.5122991,-0.0102 -0.9839028,-0.32444 -0.4872497,-0.32483 -0.9250858,-0.44444 -1.2990906,-0.43611 z m 0.095812,1.39292 c -0.1871073,3.8e-4 -0.3383866,0.15254 -0.3376558,0.33964 6.767e-4,0.18607 0.1515804,0.33664 0.3376558,0.33699 0.1868503,7.6e-4 0.3389142,-0.15014 0.3396418,-0.33699 6.764e-4,-0.18788 -0.1517596,-0.34038 -0.3396418,-0.33964 z m 3.0713037,0.3218 c -0.066863,2e-4 -0.1321637,0.0202 -0.1876625,0.0575 -0.2606883,0.17362 -0.4706255,0.30908 -0.6964594,0.34228 -0.2258389,0.0332 -0.5123004,-0.0128 -0.9839028,-0.32708 -0.1557656,-0.10395 -0.3663524,-0.0616 -0.4698135,0.0945 -0.1038293,0.15595 -0.061172,0.36657 0.095147,0.46981 0.5596028,0.37307 1.0437683,0.49309 1.4583413,0.43216 0.4145717,-0.061 0.7162955,-0.28015 0.9713435,-0.45 0.1533733,-0.10395 0.1946147,-0.3119 0.092513,-0.46651 -0.061901,-0.0942 -0.1667201,-0.15153 -0.2795092,-0.15264 z"
       sodipodi:nodetypes="sccsccsccccccccccccccccscscscccccccccscccccsssscscccsssscscsssccscsscccscccccccccccccsccccccsssccscsccccscccccscscccccccccccccccccccccccccccccccsccsccssccsccscccccccsccssssccsccscsssssscsscsscsssccccscssccsccscccccsccsccscccssccsscsscccsssccccsscscscccscccscccccc" />
  </g>
</svg>
