<?xml version="1.0" encoding="UTF-8" standalone="no"?>
<svg
   xmlns:dc="http://purl.org/dc/elements/1.1/"
   xmlns:cc="http://creativecommons.org/ns#"
   xmlns:rdf="http://www.w3.org/1999/02/22-rdf-syntax-ns#"
   xmlns:svg="http://www.w3.org/2000/svg"
   xmlns="http://www.w3.org/2000/svg"
   xmlns:sodipodi="http://sodipodi.sourceforge.net/DTD/sodipodi-0.dtd"
   xmlns:inkscape="http://www.inkscape.org/namespaces/inkscape"
   inkscape:export-ydpi="576"
   inkscape:export-xdpi="576"
   inkscape:export-filename="D:\september#1\export\expanded line\png\20 - Olympic Torch.png"
   width="64pt"
   height="64pt"
   viewBox="0 0 22.577778 22.577778"
   version="1.1"
   id="svg831"
   inkscape:version="1.0 (4035a4fb49, 2020-05-01)"
   sodipodi:docname="21 - Swim.svg">
  <defs
     id="defs825">
    <pattern
       id="EMFhbasepattern"
       patternUnits="userSpaceOnUse"
       width="6"
       height="6"
       x="0"
       y="0" />
    <pattern
       id="EMFhbasepattern-9"
       patternUnits="userSpaceOnUse"
       width="6"
       height="6"
       x="0"
       y="0" />
    <pattern
       id="EMFhbasepattern-0"
       patternUnits="userSpaceOnUse"
       width="6"
       height="6"
       x="0"
       y="0" />
    <pattern
       id="EMFhbasepattern-7"
       patternUnits="userSpaceOnUse"
       width="6"
       height="6"
       x="0"
       y="0" />
    <pattern
       id="EMFhbasepattern-2"
       patternUnits="userSpaceOnUse"
       width="6"
       height="6"
       x="0"
       y="0" />
    <pattern
       id="EMFhbasepattern-98"
       patternUnits="userSpaceOnUse"
       width="6"
       height="6"
       x="0"
       y="0" />
    <pattern
       id="EMFhbasepattern-6"
       patternUnits="userSpaceOnUse"
       width="6"
       height="6"
       x="0"
       y="0" />
    <pattern
       id="EMFhbasepattern-01"
       patternUnits="userSpaceOnUse"
       width="6"
       height="6"
       x="0"
       y="0" />
    <pattern
       id="EMFhbasepattern-07"
       patternUnits="userSpaceOnUse"
       width="6"
       height="6"
       x="0"
       y="0" />
    <pattern
       id="EMFhbasepattern-8"
       patternUnits="userSpaceOnUse"
       width="6"
       height="6"
       x="0"
       y="0" />
    <pattern
       id="EMFhbasepattern-4"
       patternUnits="userSpaceOnUse"
       width="6"
       height="6"
       x="0"
       y="0" />
    <pattern
       id="EMFhbasepattern-40"
       patternUnits="userSpaceOnUse"
       width="6"
       height="6"
       x="0"
       y="0" />
    <pattern
       id="EMFhbasepattern-08"
       patternUnits="userSpaceOnUse"
       width="6"
       height="6"
       x="0"
       y="0" />
    <pattern
       id="EMFhbasepattern-04"
       patternUnits="userSpaceOnUse"
       width="6"
       height="6"
       x="0"
       y="0" />
    <pattern
       id="EMFhbasepattern-014"
       patternUnits="userSpaceOnUse"
       width="6"
       height="6"
       x="0"
       y="0" />
    <pattern
       id="EMFhbasepattern-27"
       patternUnits="userSpaceOnUse"
       width="6"
       height="6"
       x="0"
       y="0" />
    <pattern
       id="EMFhbasepattern-09"
       patternUnits="userSpaceOnUse"
       width="6"
       height="6"
       x="0"
       y="0" />
    <pattern
       id="EMFhbasepattern-5"
       patternUnits="userSpaceOnUse"
       width="6"
       height="6"
       x="0"
       y="0" />
    <pattern
       id="EMFhbasepattern-018"
       patternUnits="userSpaceOnUse"
       width="6"
       height="6"
       x="0"
       y="0" />
  </defs>
  <sodipodi:namedview
     id="base"
     pagecolor="#ffffff"
     bordercolor="#666666"
     borderopacity="1.0"
     inkscape:pageopacity="0.0"
     inkscape:pageshadow="2"
     inkscape:zoom="6.0079346"
     inkscape:cx="35.842358"
     inkscape:cy="42.666667"
     inkscape:document-units="pt"
     inkscape:current-layer="layer1"
     showgrid="false"
     units="pt"
     inkscape:window-width="1366"
     inkscape:window-height="705"
     inkscape:window-x="-8"
     inkscape:window-y="-8"
     inkscape:window-maximized="1"
     inkscape:pagecheckerboard="true"
     inkscape:showpageshadow="false"
     inkscape:object-paths="true"
     inkscape:snap-intersection-paths="true"
     inkscape:snap-smooth-nodes="true"
     inkscape:snap-midpoints="true"
     showguides="true"
     inkscape:snap-bbox="true"
     inkscape:bbox-nodes="true"
     inkscape:snap-nodes="false"
     inkscape:snap-global="true"
     inkscape:document-rotation="0">
    <inkscape:grid
       type="xygrid"
       id="grid1378" />
    <sodipodi:guide
       position="0.97013831,21.607643"
       orientation="78.000048,0"
       id="guide1380"
       inkscape:locked="false" />
    <sodipodi:guide
       position="0.97013831,0.97013129"
       orientation="0,78.000005"
       id="guide1382"
       inkscape:locked="false" />
    <sodipodi:guide
       position="21.607639,0.97013129"
       orientation="-78.000048,0"
       id="guide1384"
       inkscape:locked="false" />
    <sodipodi:guide
       position="21.607639,21.607643"
       orientation="0,-78.000005"
       id="guide1386"
       inkscape:locked="false" />
  </sodipodi:namedview>
  <metadata
     id="metadata828">
    <rdf:RDF>
      <cc:Work
         rdf:about="">
        <dc:format>image/svg+xml</dc:format>
        <dc:type
           rdf:resource="http://purl.org/dc/dcmitype/StillImage" />
        <dc:title></dc:title>
      </cc:Work>
    </rdf:RDF>
  </metadata>
  <g
     inkscape:label="Icon"
     inkscape:groupmode="layer"
     id="layer1"
     transform="translate(0,-274.42223)">
    <path
       id="path1689"
       style="color:#000000;font-style:normal;font-variant:normal;font-weight:normal;font-stretch:normal;font-size:medium;line-height:normal;font-family:sans-serif;font-variant-ligatures:normal;font-variant-position:normal;font-variant-caps:normal;font-variant-numeric:normal;font-variant-alternates:normal;font-variant-east-asian:normal;font-feature-settings:normal;font-variation-settings:normal;text-indent:0;text-align:start;text-decoration:none;text-decoration-line:none;text-decoration-style:solid;text-decoration-color:#000000;letter-spacing:normal;word-spacing:normal;text-transform:none;writing-mode:lr-tb;direction:ltr;text-orientation:mixed;dominant-baseline:auto;baseline-shift:baseline;text-anchor:start;white-space:normal;shape-padding:0;shape-margin:0;inline-size:0;clip-rule:nonzero;display:inline;overflow:visible;visibility:visible;isolation:auto;mix-blend-mode:normal;color-interpolation:sRGB;color-interpolation-filters:linearRGB;solid-color:#000000;solid-opacity:1;vector-effect:none;fill:#000000;fill-opacity:1;fill-rule:nonzero;stroke:none;stroke-width:0.529167;stroke-linecap:round;stroke-linejoin:round;stroke-miterlimit:4;stroke-dasharray:none;stroke-dashoffset:0;stroke-opacity:1;color-rendering:auto;image-rendering:auto;shape-rendering:auto;text-rendering:auto;enable-background:accumulate;stop-color:#000000"
       d="m 2.6363997,277.72276 c -0.9152378,0 -1.66626811,0.74843 -1.66626144,1.66366 0.002,4.43709 0.002,8.87555 0.002,13.31513 -3.4e-6,0.54756 0.45036914,0.99794 0.99793414,0.99794 H 20.609702 c 0.547565,0 0.997941,-0.45038 0.997937,-0.99794 v -11.31731 c 4e-6,-0.54757 -0.450372,-0.99794 -0.997937,-0.99794 H 6.2972779 v -0.99988 c -4e-5,-0.91524 -0.7484672,-1.66366 -1.6637051,-1.66366 -0.3729022,0 -0.7147549,0.12829 -0.9933872,0.33741 -0.2797274,-0.21118 -0.6281742,-0.33741 -1.0037859,-0.33741 z m 0,0.66573 c 0.2098763,0 0.3999473,0.0664 0.5591053,0.17552 -0.1408906,0.24379 -0.2275446,0.52216 -0.2275446,0.82241 v 1.66561 H 1.6358627 v -1.66561 c -3.4e-6,-0.55544 0.4450865,-0.99793 1.000537,-0.99793 z m 1.9971731,0 c 0.5554471,0 0.9979408,0.44248 0.9979342,0.99793 v 0.99988 H 4.6504755 c -0.182941,6.4e-4 -0.3309315,0.14863 -0.3315607,0.33156 -6.657e-4,0.18389 0.1476644,0.33354 0.3315607,0.33417 H 20.609655 c 0.187779,0 0.334164,0.14444 0.334164,0.33221 v 0.33416 H 3.6336848 v -2.33198 c -3.4e-6,-0.55544 0.4444409,-0.99793 0.999888,-0.99793 z m -2.9977101,3.32991 h 1.3320977 v 1.32885 H 1.6358627 Z m 14.4873163,3.57957 c 0.269822,-0.17376 0.58423,-0.23498 1.162415,-0.1248 l 0.726838,0.31207 c 0.426742,0.18289 0.929781,-0.0438 1.076599,-0.48434 6.67e-4,-8.5e-4 0.0016,-10e-4 0.0026,-0.003 l 0.0098,-0.0292 c 0.142202,-0.42662 -0.05787,-0.89223 -0.454434,-1.10065 -0.03873,-0.0306 -0.524786,-0.42325 -1.213778,-0.55326 -0.647917,-0.12228 -1.445271,-0.16586 -2.24877,0.14888 -0.481592,0.24038 -0.969022,0.72247 -1.385409,1.15656 -0.378951,0.39508 -0.620116,0.68633 -0.670924,0.74699 -1.17069,0.13116 -2.522333,0.70917 -3.5139065,0.99274 l -2.2936294,-2.45421 c -0.3763873,-0.39995 -1.0132991,-0.41804 -1.4120613,-0.0429 -0.3980765,0.37445 -0.4172993,1.00933 -0.044211,1.40947 l 0.9972151,1.10456 h -1.562281 c -0.4350575,0 -0.8056663,0.28725 -0.9413774,0.67937 -0.2499029,-0.0191 -0.4910684,-0.0113 -0.7242349,-0.004 v -4.66916 H 20.943819 v 5.06965 c -1.07855,0.29992 -2.188556,0.30623 -3.320823,0.15408 0.19852,-0.23279 0.323113,-0.5301 0.323113,-0.85751 0,-0.7314 -0.600054,-1.33145 -1.331449,-1.33145 -0.453814,0 -0.855359,0.23105 -1.09935,0.57925 0.205639,-0.27952 0.412486,-0.57433 0.607869,-0.70017 z M 1.6358627,283.71362 h 1.3320977 v 1.33146 H 1.6358627 Z m 15.6718273,0.2555 c 0.509755,0.0962 1.020039,0.41803 1.020039,0.41803 0.14291,0.0764 0.18328,0.24804 0.158632,0.34197 -0.01057,0.0517 -0.132553,0.17506 -0.210642,0.14172 l -0.8094,-0.34131 c -0.732241,-0.14749 -1.279839,-0.0648 -1.704618,0.20868 -0.424782,0.27358 -0.708291,0.68585 -1.038896,1.15527 -0.121113,0.17179 -0.0551,0.41115 0.137176,0.49604 0.177015,0.0776 0.312914,0.15187 0.438183,0.23144 -0.03696,0.18071 0.02214,0.37266 0.05655,0.53116 -1.435531,-0.23559 -2.810419,-0.0345 -4.145825,0.23339 -0.328991,0.0998 -0.640461,0.1647 -0.944626,0.21584 0.01705,-0.0723 0.02797,-0.14702 0.02797,-0.22429 0,-0.17644 -0.05057,-0.34088 -0.132626,-0.48564 1.06182,-0.33669 2.294103,-0.84266 3.182345,-0.90758 0.08976,-0.006 0.172909,-0.0488 0.230794,-0.11762 0,0 0.309199,-0.3716 0.707331,-0.78666 0.39372,-0.41048 0.895749,-0.85683 1.177371,-1.00248 0.622123,-0.22525 1.247028,-0.20262 1.850254,-0.10795 z m -8.5894056,2.40806 h -0.96088 l -1.4036098,-1.55575 c -0.1327488,-0.141 -0.1261881,-0.3443 0.012354,-0.47459 0.1939089,-0.14323 0.3011272,-0.0632 0.3849353,-0.0241 z m -7.0824217,-0.66639 h 1.3320977 v 1.38542 c -0.4304008,0.0409 -0.8742958,0.10769 -1.3320977,0.20218 z m 14.9787973,0.37383 c 0.371611,0 0.665725,0.29412 0.665725,0.66572 0,0.37162 -0.294114,0.66573 -0.665725,0.66573 -0.37161,0 -0.663774,-0.29411 -0.663774,-0.66573 0,-0.3716 0.292164,-0.66572 0.663774,-0.66572 z m -11.3153629,0.95827 h 3.9930445 c 0.1901649,0 0.3341639,0.144 0.3341639,0.33417 l -0.1040166,0.31075 c -1.118803,0.0698 -2.1124532,-0.12215 -3.1478876,-0.3036 -0.4040048,-0.12304 -0.8333204,-0.21025 -1.2807405,-0.2672 0.05654,-0.0442 0.124923,-0.0741 0.2054392,-0.0741 z m 6.0714819,0.98754 c 1.591295,-0.31649 3.151945,-0.52959 4.827154,-0.001 1.584744,0.33879 3.176621,0.5055 4.745886,0.11247 v 1.31258 c -0.521352,0.14487 -1.048798,0.22354 -1.584348,0.2451 -0.183968,0.008 -0.327522,0.16257 -0.319859,0.34652 0.0073,0.18397 0.162559,0.32687 0.346515,0.31921 0.520614,-0.0209 1.040468,-0.091 1.557692,-0.22039 v 1.30154 c -1.474549,0.41028 -3.008228,0.26905 -4.576206,-0.0657 -1.272911,-0.40385 -2.505307,-0.40262 -3.689437,-0.2516 -0.183637,0.0223 -0.313879,0.19038 -0.289957,0.37382 0.02354,0.18265 0.191233,0.31135 0.373822,0.28735 1.12756,-0.14379 2.247051,-0.13999 3.435892,0.2347 1.584781,0.3388 3.176585,0.50333 4.745886,0.10982 v 0.56691 c 0,0.18778 -0.146385,0.33156 -0.334164,0.33156 H 1.970023 c -0.1877743,0 -0.3341637,-0.14378 -0.3341603,-0.33156 v -0.72814 c 1.5477458,-0.32634 3.1856441,-0.36164 4.5859553,0.0527 1.2761337,0.22664 2.5741197,0.49447 4.126972,0.23795 0.182096,-0.0294 0.30532,-0.20097 0.275,-0.38292 -0.03062,-0.1811 -0.201781,-0.30347 -0.382922,-0.27305 -1.4202718,0.23461 -2.6148676,-0.0101 -3.8675711,-0.22819 -0.7884174,-0.23364 -1.6498213,-0.33565 -2.5257216,-0.32701 -0.7377723,0.008 -1.4840626,0.0967 -2.2117126,0.24249 v -1.32235 c 1.3977848,-0.30343 2.6372903,-0.34072 3.7349466,-0.14627 0.1811934,0.0321 0.353736,-0.0886 0.3855209,-0.26981 0.032021,-0.18119 -0.08922,-0.35439 -0.2704504,-0.38617 -1.1580443,-0.20514 -2.4383354,-0.16808 -3.8500171,0.12354 v -1.3152 c 0.8377441,-0.18202 1.6209555,-0.27295 2.35019,-0.27045 0.8037423,0.003 1.5459018,0.1131 2.2351162,0.32181 0.9752862,0.17284 1.9690728,0.36844 3.1527643,0.33286 0.6814188,-0.0335 1.3136368,-0.12555 1.9968458,-0.33286 z m 2.36189,1.01549 c -0.857735,0.0287 -1.693049,0.17029 -2.52377,0.33741 -1.4444687,0.4379 -2.6126819,0.36217 -3.7791541,0.18074 -0.1819025,-0.0287 -0.3526842,0.0957 -0.3809707,0.2776 -0.027261,0.18102 0.09674,0.35005 0.2776004,0.37837 1.2063557,0.18764 2.5101829,0.27348 4.0444044,-0.19309 1.591295,-0.31775 3.151945,-0.52833 4.827154,0 0.378757,0.0813 0.743032,0.15042 1.107156,0.20544 0.181851,0.0272 0.351254,-0.0984 0.378372,-0.2802 0.02716,-0.18186 -0.09834,-0.35124 -0.280204,-0.37837 -0.347943,-0.0526 -0.699094,-0.11901 -1.035644,-0.18918 -0.895705,-0.28329 -1.777204,-0.36739 -2.634944,-0.33872 z"
       sodipodi:nodetypes="sccssccscsscsscscccsssccccssccssccccccccccscccsccccccsccccccsscccccccccccccccccccsccccccccccccsccsssssssccccssccccccccccccccssssccccccccccccccsscccccccccccccscc" />
  </g>
</svg>
