<?xml version="1.0" encoding="iso-8859-1"?>
<!-- Generator: Adobe Illustrator 16.0.0, SVG Export Plug-In . SVG Version: 6.00 Build 0)  -->
<!DOCTYPE svg PUBLIC "-//W3C//DTD SVG 1.1//EN" "http://www.w3.org/Graphics/SVG/1.1/DTD/svg11.dtd">
<svg version="1.1" id="Capa_1" xmlns="http://www.w3.org/2000/svg" xmlns:xlink="http://www.w3.org/1999/xlink" x="0px" y="0px"
	 width="106.048px" height="106.048px" viewBox="0 0 106.048 106.048" style="enable-background:new 0 0 106.048 106.048;"
	 xml:space="preserve">
<g>
	<path style="fill:#010002;" d="M56.059,35.485c3.448-5.328,10.573-6.851,15.896-3.397c5.328,3.454,6.846,10.569,3.402,15.902
		c-3.454,5.329-10.574,6.846-15.902,3.397C54.127,47.938,52.604,40.813,56.059,35.485z M9.339,84.372
		c4.95-9.621,12.704-2.802,12.704-2.802c-4.694,0.415-4.922,4.79-4.078,7.379c1.007,3.092,4.469,4.282,6.183,4.702h1.504
		c1.734-0.348,5.551-1.937,9.333-9.274c4.963-9.621,12.705-2.802,12.705-2.802c-4.694,0.415-4.912,4.79-4.067,7.379
		c1.002,3.092,4.458,4.283,6.193,4.702h1.234c1.74-0.347,5.562-1.937,9.336-9.274c4.977-9.62,12.707-2.801,12.707-2.801
		c-4.681,0.414-4.908,4.789-4.059,7.379c1.004,3.091,4.453,4.282,6.182,4.701h1.492c1.729-0.347,5.571-1.937,9.33-9.273
		c4.977-9.621,12.697-2.802,12.697-2.802c-4.681,0.415-4.909,4.79-4.06,7.379c1.005,3.092,4.453,4.282,6.183,4.702h5.188V79.789
		h-3.5c-1.699-0.414-5.085-1.574-6.079-4.577c-0.824-2.537-0.611-6.81,3.986-7.203c0,0-7.58-6.648-12.469,2.729
		c-1.305,2.526-2.62,4.318-3.853,5.644L69.231,61.029L51.396,49.456l-6.331-4.106v0.005l-12.684-8.212l-6.123-21.163
		c-0.769-2.656-3.532-4.138-6.204-3.418c-2.659,0.771-4.189,3.547-3.42,6.204l6.644,22.955c0.339,1.16,1.074,2.149,2.094,2.807
		l14.248,9.223L23.734,78.272c-1.093-0.71-2.1-1.684-2.561-3.081c-0.829-2.538-0.611-6.81,3.987-7.208c0,0-7.588-6.644-12.456,2.734
		c-3.729,7.15-7.482,8.715-9.173,9.056H0v13.878C1.729,93.299,5.546,91.71,9.339,84.372z"/>
</g>
<g>
</g>
<g>
</g>
<g>
</g>
<g>
</g>
<g>
</g>
<g>
</g>
<g>
</g>
<g>
</g>
<g>
</g>
<g>
</g>
<g>
</g>
<g>
</g>
<g>
</g>
<g>
</g>
<g>
</g>
</svg>
