<?xml version="1.0" ?><svg id="Layer_1" style="enable-background:new 0 0 512 512;" version="1.0" viewBox="0 0 512 512" xml:space="preserve" xmlns="http://www.w3.org/2000/svg" xmlns:xlink="http://www.w3.org/1999/xlink"><style type="text/css">
	.st0{fill:none;stroke:#000000;stroke-miterlimit:10;}
	.st1{fill:none;stroke:#000000;stroke-linecap:round;stroke-linejoin:round;stroke-miterlimit:10;}
</style><g><g><path d="M434.4,379.5c-18.9,0-37.8-17.5-57.8-36c-15.9-14.8-34-31.5-46-31.5c-8.5,0-20.4,9.1-28.5,15.9c-3.8,3.2-9.6,2.7-12.8-1.2    c-3.2-3.9-2.7-9.6,1.2-12.8c11.9-9.9,26-20.1,40.2-20.1c19.1,0,38.2,17.6,58.4,36.3c15.8,14.6,33.7,31.2,45.4,31.2    c2.5,0,5.5-0.8,8.8-2.3c4.5-2.1,9.9-0.1,12,4.5c2.1,4.6,0.1,10-4.5,12C444.9,378.2,439.6,379.5,434.4,379.5z"/></g><g><path d="M226.5,379.5c-18.9,0-37.8-17.5-57.8-36c-15.9-14.8-34-31.5-46-31.5c-12,0-30.2,17-46.2,32l-5.2,4.8    c-3.7,3.4-9.4,3.2-12.8-0.5c-3.4-3.7-3.2-9.4,0.5-12.8l5.2-4.8c20.3-19,39.4-36.9,58.7-36.9c19.1,0,38.2,17.6,58.4,36.3    c15.8,14.6,33.7,31.2,45.4,31.2c8.4,0,19.7-8.6,27.5-15c3.9-3.2,9.6-2.7,12.8,1.2c3.2,3.9,2.7,9.6-1.2,12.8    C254.2,369.7,240.6,379.5,226.5,379.5z"/></g><g><path d="M434.4,425.1c-9.8,0-20.4-4.7-33.4-14.8c-4-3.1-4.7-8.8-1.6-12.7c3.1-4,8.8-4.7,12.8-1.6c9.4,7.3,16.9,11,22.2,11    c2.3,0,5.2-0.8,8.8-2.5c4.5-2.1,9.9-0.1,12,4.5c2.1,4.6,0.1,10-4.5,12C444.6,423.8,439.4,425.1,434.4,425.1z"/></g><g><path d="M226.5,425.1c-14.6,0-29-10.7-41.2-21.1c-3.8-3.3-4.3-9-1-12.8c3.2-3.8,9-4.3,12.8-1c8.4,7.2,20.6,16.7,29.4,16.7    c12,0,30.1-16.7,46-31.5c20.1-18.6,39-36.2,58-36.2c15.4,0,31,11.9,45.6,24.8c3.8,3.3,4.1,9.1,0.8,12.8c-3.3,3.7-9.1,4.1-12.8,0.8    c-10.7-9.4-24.2-20.3-33.6-20.3c-11.9,0-29.8,16.6-45.7,31.3C264.7,407.5,245.7,425.1,226.5,425.1z"/></g><g><path d="M65.1,396.7c-2.5,0-4.9-1-6.7-2.9c-3.4-3.7-3.2-9.4,0.5-12.9l6.1-5.6c19.9-18.5,38.8-36,57.7-36c11.2,0,22.9,5.6,38,18.3    c3.8,3.2,4.4,8.9,1.1,12.8c-3.2,3.9-8.9,4.4-12.8,1.1c-11.3-9.4-19.9-14-26.3-14c-11.8,0-29.6,16.5-45.3,31.2l-6.2,5.7    C69.5,395.9,67.3,396.7,65.1,396.7z"/></g><g><path d="M291.3,141h-54.5c-5,0-9.1-4.1-9.1-9.1c0-5,4.1-9.1,9.1-9.1h54.5c5,0,9.1,4.1,9.1,9.1C300.4,136.9,296.4,141,291.3,141z"/></g><g><path d="M131.8,207.8c-8.6,0-17.3-1.5-25.9-4.6c-39.3-14.3-59.7-58-45.4-97.3c14.3-39.3,58-59.7,97.3-45.4    c39.3,14.3,59.7,58,45.4,97.3C192,188.7,162.9,207.8,131.8,207.8z M132,74.2c-23.6,0-45.8,14.6-54.3,38    c-10.9,29.9,4.6,63.1,34.5,74c29.9,10.8,63.1-4.6,74-34.5c5.3-14.5,4.6-30.2-1.9-44.1s-18.1-24.6-32.6-29.8    C145.2,75.3,138.5,74.2,132,74.2z"/></g><g><path d="M283.4,196.1c-1,0-2.1-0.2-3.1-0.6l-54.5-19.9c-4.7-1.7-7.2-6.9-5.4-11.6c1.7-4.7,6.9-7.1,11.6-5.4l54.5,19.9    c4.7,1.7,7.2,6.9,5.4,11.6C290.6,193.8,287.1,196.1,283.4,196.1z"/></g><g><path d="M260.4,248.8c-2.1,0-4.1-0.7-5.8-2.1L200,200.9c-3.8-3.2-4.4-9-1.1-12.8c3.2-3.8,9-4.4,12.8-1.1l54.5,45.8    c3.8,3.2,4.4,9,1.1,12.8C265.6,247.7,263,248.8,260.4,248.8z"/></g><g><path d="M213.7,282.7c-3.1,0-6.2-1.6-7.9-4.5l-31.5-54.5c-2.5-4.4-1-9.9,3.3-12.4c4.3-2.5,9.9-1,12.4,3.3l31.5,54.5    c2.5,4.4,1,9.9-3.3,12.4C216.8,282.3,215.3,282.7,213.7,282.7z"/></g><g><path d="M159.7,298.4c-4.3,0-8.2-3.1-8.9-7.5l-9.6-54.5c-0.9-5,2.4-9.7,7.4-10.5c5-1,9.7,2.4,10.5,7.4l9.6,54.5    c0.9,5-2.4,9.7-7.4,10.5C160.7,298.4,160.2,298.4,159.7,298.4z"/></g><g><path d="M228.8,105.7c-3.7,0-7.2-2.3-8.5-6c-1.7-4.7,0.7-9.9,5.4-11.6l54.5-19.9c4.7-1.7,9.9,0.7,11.6,5.4    c1.7,4.7-0.7,9.9-5.4,11.6l-54.5,19.9C230.9,105.6,229.8,105.7,228.8,105.7z"/></g><g><path d="M118.3,422.7c-15,0-27.3-12.2-27.3-27.3s12.2-27.3,27.3-27.3s27.3,12.2,27.3,27.3S133.3,422.7,118.3,422.7z M118.3,386.3    c-5,0-9.1,4.1-9.1,9.1s4.1,9.1,9.1,9.1s9.1-4.1,9.1-9.1S123.3,386.3,118.3,386.3z"/></g><g><path d="M329.3,456c-15,0-27.3-12.2-27.3-27.3c0-15,12.2-27.3,27.3-27.3s27.3,12.2,27.3,27.3C356.5,443.8,344.3,456,329.3,456z     M329.3,419.6c-5,0-9.1,4.1-9.1,9.1s4.1,9.1,9.1,9.1s9.1-4.1,9.1-9.1S334.3,419.6,329.3,419.6z"/></g></g></svg>